<svg width="30" height="30" viewBox="0 0 30 30" fill="none" xmlns="http://www.w3.org/2000/svg">
<circle cx="15" cy="15" r="14.6" stroke="#333333" stroke-width="0.8" stroke-linecap="round" stroke-linejoin="round"/>
<path d="M25.0375 24.9826L24.5157 22.8953C24.4064 22.4655 24.1893 22.0707 23.8849 21.7481C23.5806 21.4255 23.199 21.1858 22.7763 21.0516L18.9149 19.7645C17.6104 19.2253 17.1756 17.1554 17.1756 16.7206C17.8793 16.1955 18.3018 15.2264 18.4801 14.5464C18.6584 13.8664 18.8799 12.7566 18.9149 11.5025C18.9149 11.5025 18.9149 9.91236 18.9149 8.89347C18.9149 8.89347 18.9149 7.41764 17.8531 6.17576C16.7913 4.93388 15.0013 4.97989 15.0013 4.97989C13.9778 5.0246 13.0081 5.45129 12.2836 6.17576C11.5591 6.90023 11.1325 7.86988 11.0878 8.89347C11.0878 8.89347 11.0064 10.4869 11.0878 11.5025C11.1306 12.0362 11.2872 13.6767 11.5226 14.5464C11.758 15.4161 12.1234 16.1955 12.8271 16.7206C12.8271 17.1294 12.3923 19.2253 11.0878 19.7645L7.26115 21.069C6.83843 21.2032 6.45689 21.4428 6.15255 21.7654C5.84821 22.088 5.63111 22.4829 5.52179 22.9127L5 25" stroke="#333333" stroke-width="0.8" stroke-linecap="round" stroke-linejoin="round"/>
</svg>
