<svg width="22" height="22" viewBox="0 0 22 22" fill="none" xmlns="http://www.w3.org/2000/svg">
<path d="M4.4406 3.4761C6.26273 1.89507 8.59573 1.02735 11.0082 1.03334C13.4206 1.03933 14.5868 1.51891 16.1884 2.49751C17.7901 3.4761 19.7805 5.71592 20.5054 8.01687C21.2303 10.3178 21.0975 12.8035 20.1315 15.0141C19.1655 17.2247 17.4318 19.0107 15.2509 20.0419C13.0699 21.0731 10.5894 21.2798 8.26792 20.6236C5.94645 19.9674 3.9411 18.4929 2.62271 16.4725C1.30433 14.4522 0.762088 12.0228 1.09628 9.63364C1.43047 7.24447 2.61847 5.05713 4.4406 3.4761Z" stroke="#333333" stroke-width="0.8" stroke-linecap="round" stroke-linejoin="round"/>
<path d="M11.0082 1V20.9667" stroke="#333333" stroke-width="0.8" stroke-linecap="round" stroke-linejoin="round"/>
<path d="M3.24329 5.43704H18.7729" stroke="#333333" stroke-width="0.8" stroke-linecap="round" stroke-linejoin="round"/>
<path d="M1.02478 10.9834H20.9915" stroke="#333333" stroke-width="0.8" stroke-linecap="round" stroke-linejoin="round"/>
<path d="M18.7729 16.5297H3.24329" stroke="#333333" stroke-width="0.8" stroke-linecap="round" stroke-linejoin="round"/>
<path d="M5.46179 10.9834C5.46179 5.43705 8.78958 1 11.0081 1C13.2266 1 16.5544 5.43705 16.5544 10.9834C16.5544 16.5297 14.0697 20.9667 11.0081 20.9667C7.94654 20.9667 5.46179 16.5297 5.46179 10.9834Z" stroke="#333333" stroke-width="0.8" stroke-linecap="round" stroke-linejoin="round"/>
</svg>
