<svg width="18" height="22" viewBox="0 0 18 22" fill="none" xmlns="http://www.w3.org/2000/svg">
<path d="M2.92295 14.9095L1.18427 11.4321C1.05348 11.1711 0.99052 10.8815 1.00115 10.5897C1.01179 10.298 1.09569 10.0137 1.24513 9.76297L3.05337 6.75504C3.25178 6.41795 3.55806 6.15762 3.92271 6.0161L10.3124 3.62541L15.5284 6.23344C14.8356 8.05491 13.9618 9.80233 12.9204 11.4495C11.9859 13.1358 10.424 14.3854 8.57367 14.9269L5.53098 16.7351C5.17982 16.9452 4.76152 17.0127 4.36211 16.9237C3.96269 16.8348 3.61257 16.5962 3.38373 16.2569V16.2569C3.26611 16.0807 3.18487 15.8828 3.1448 15.6747C3.10472 15.4667 3.10659 15.2528 3.15031 15.0454C3.19404 14.8381 3.27874 14.6417 3.39943 14.4675C3.52012 14.2934 3.67438 14.1451 3.85315 14.0314C4.79943 13.3737 5.79652 12.7923 6.83499 12.2928C7.22492 11.3109 7.81735 10.4223 8.57367 9.68472C7.63467 9.67562 6.72231 9.3715 5.96565 8.81538C5.96565 9.37176 3.79229 10.5541 3.35762 10.5541C3.84705 11.0102 4.15569 11.6275 4.22696 12.2928C4.68771 12.2928 5.0963 13.1621 5.0963 13.1621" stroke="#333333" stroke-width="0.8" stroke-linecap="round" stroke-linejoin="round"/>
<path d="M4.22681 19.2562V17.0828" stroke="#333333" stroke-width="0.8" stroke-linecap="round" stroke-linejoin="round"/>
<path d="M11.1816 1L9.44287 3.17335L16.0064 6.45947C16.1394 6.52649 16.2874 6.55822 16.4362 6.55162C16.585 6.54501 16.7296 6.5003 16.8561 6.42176C16.9826 6.34322 17.0869 6.23349 17.1588 6.10308C17.2308 5.97268 17.268 5.82599 17.2669 5.67706V3.60803L11.1816 1Z" stroke="#333333" stroke-width="0.8" stroke-linecap="round" stroke-linejoin="round"/>
<path d="M5.98307 16.4656L5.531 16.7351C5.17984 16.9452 4.76154 17.0127 4.36213 16.9237C3.96272 16.8348 3.61259 16.5962 3.38375 16.2569V16.2569C3.32777 16.1679 3.27834 16.075 3.23592 15.9788C2.71311 16.193 2.27405 16.5713 1.98476 17.0566C1.69546 17.542 1.57158 18.1081 1.6318 18.6699C1.69202 19.2317 1.93308 19.7588 2.31867 20.1718C2.70426 20.5848 3.21352 20.8614 3.76987 20.96C4.32622 21.0586 4.89957 20.9738 5.4036 20.7185C5.90763 20.4631 6.31511 20.051 6.56472 19.5441C6.81433 19.0372 6.89258 18.463 6.78768 17.9078C6.68278 17.3526 6.40042 16.8465 5.98307 16.4656V16.4656Z" stroke="#333333" stroke-width="0.8" stroke-linecap="round" stroke-linejoin="round"/>
</svg>
