<svg width="20" height="22" viewBox="0 0 20 22" fill="none" xmlns="http://www.w3.org/2000/svg">
<path d="M12.3044 15.7826H15.7826V2.73913C15.7826 2.27788 15.9659 1.83555 16.292 1.5094C16.6182 1.18325 17.0605 1 17.5218 1H10.5652C9.87337 1 9.20984 1.27483 8.72061 1.76405C8.23138 2.25328 7.95654 2.91683 7.95654 3.6087V13.1739" stroke="#333333" stroke-width="0.8" stroke-linecap="round" stroke-linejoin="round"/>
<path d="M3.6087 15.7826C3.6087 15.0907 3.88354 14.4272 4.37276 13.938C4.86199 13.4487 5.52552 13.1739 6.21739 13.1739H14.0435C13.5822 13.1739 13.1399 13.3572 12.8137 13.6833C12.4876 14.0095 12.3043 14.4518 12.3043 14.9131V18.3913C12.3043 19.0832 12.0295 19.7467 11.5403 20.236C11.0511 20.7252 10.3875 21 9.69565 21H1C1.69187 21 2.3554 20.7252 2.84463 20.236C3.33385 19.7467 3.6087 19.0832 3.6087 18.3913V15.7826Z" stroke="#333333" stroke-width="0.8" stroke-linecap="round" stroke-linejoin="round"/>
<path d="M13.1738 13.1739H14.0434C14.5046 13.1739 14.947 13.3572 15.2731 13.6833C15.5993 14.0095 15.7825 14.4518 15.7825 14.9131V15.7826" stroke="#333333" stroke-width="0.8" stroke-linecap="round" stroke-linejoin="round"/>
<path d="M17.5216 1C17.9828 1 18.4252 1.18325 18.7514 1.5094C19.0775 1.83555 19.2607 2.27788 19.2607 2.73913V3.6087H15.7825" stroke="#333333" stroke-width="0.8" stroke-linecap="round" stroke-linejoin="round"/>
<path d="M9.6958 3.60869H14.0436" stroke="#333333" stroke-width="0.8" stroke-linecap="round" stroke-linejoin="round"/>
<path d="M9.6958 6.21739H14.0436" stroke="#333333" stroke-width="0.8" stroke-linecap="round" stroke-linejoin="round"/>
<path d="M9.6958 8.8261H14.0436" stroke="#333333" stroke-width="0.8" stroke-linecap="round" stroke-linejoin="round"/>
<path d="M9.6958 11.4348H14.0436" stroke="#333333" stroke-width="0.8" stroke-linecap="round" stroke-linejoin="round"/>
<path d="M5.34766 15.7826H10.565" stroke="#333333" stroke-width="0.8" stroke-linecap="round" stroke-linejoin="round"/>
<path d="M5.34766 18.3913H10.565" stroke="#333333" stroke-width="0.8" stroke-linecap="round" stroke-linejoin="round"/>
</svg>
