<?xml version="1.0" encoding="utf-8"?>
<!-- Generator: Adobe Illustrator 24.0.1, SVG Export Plug-In . SVG Version: 6.00 Build 0)  -->
<svg version="1.1" id="Calque_1" xmlns="http://www.w3.org/2000/svg" xmlns:xlink="http://www.w3.org/1999/xlink" x="0px" y="0px"
	 viewBox="0 0 22 22" style="enable-background:new 0 0 22 22;" xml:space="preserve">
<style type="text/css">
	.st0{opacity:0.25;fill:#FFFFFF;enable-background:new    ;}
	.st1{fill:#FFB300;}
</style>
<polygon class="st0" points="20.5,0.2 11,12.2 1.4,0 11,21.6 21,0.4 "/>
<g>
	<g>
		<path d="M1.1,0L1,0.1l0,0C0.6,0.3,0.6,0.4,0.6,0.5s0,0.1,0,0.1l9.8,20.9C10.7,22,10.9,22,11,22c0.2,0,0.4,0,0.7-0.5l9.7-20.8
			c0-0.1,0-0.2,0-0.2c0-0.2,0-0.3-0.3-0.4L21,0h-0.1c-0.1,0-0.2,0-0.3,0.1c-0.1,0-0.1,0.1-0.1,0.1L11,20.9L1.5,0.3
			C1.4,0.1,1.4,0.1,1.4,0.1C1.3,0.1,1.2,0,1.1,0z"/>
	</g>
	<g>
		<g>
			<path class="st1" d="M19.6,21.6c-0.4,0-0.7-0.1-1-0.4s-0.4-0.6-0.4-1s0.1-0.7,0.4-1s0.6-0.4,1-0.4s0.7,0.1,1,0.4s0.4,0.6,0.4,1.1
				c0,0.4-0.1,0.7-0.4,1C20.3,21.5,20,21.6,19.6,21.6z"/>
			<path d="M19.6,19.1c0.3,0,0.5,0.1,0.7,0.3c0.2,0.2,0.3,0.5,0.3,0.8s-0.1,0.5-0.3,0.7c-0.2,0.2-0.4,0.3-0.7,0.3
				c-0.3,0-0.5-0.1-0.7-0.3c-0.2-0.2-0.3-0.4-0.3-0.7c0-0.3,0.1-0.5,0.3-0.7C19.2,19.2,19.4,19.1,19.6,19.1 M19.6,18.3
				c-0.5,0-0.9,0.2-1.3,0.6s-0.5,0.8-0.5,1.3s0.2,0.9,0.5,1.3c0.4,0.4,0.8,0.5,1.3,0.5s0.9-0.2,1.3-0.5s0.5-0.8,0.5-1.3
				s-0.2-0.9-0.6-1.3C20.5,18.5,20.1,18.3,19.6,18.3L19.6,18.3z"/>
		</g>
	</g>
</g>
</svg>
