<?xml version="1.0" encoding="utf-8"?>
<!-- Generator: Adobe Illustrator 15.0.0, SVG Export Plug-In . SVG Version: 6.00 Build 0)  -->
<!DOCTYPE svg PUBLIC "-//W3C//DTD SVG 1.1//EN" "http://www.w3.org/Graphics/SVG/1.1/DTD/svg11.dtd" [
	<!ENTITY ns_extend "http://ns.adobe.com/Extensibility/1.0/">
	<!ENTITY ns_ai "http://ns.adobe.com/AdobeIllustrator/10.0/">
	<!ENTITY ns_graphs "http://ns.adobe.com/Graphs/1.0/">
	<!ENTITY ns_vars "http://ns.adobe.com/Variables/1.0/">
	<!ENTITY ns_imrep "http://ns.adobe.com/ImageReplacement/1.0/">
	<!ENTITY ns_sfw "http://ns.adobe.com/SaveForWeb/1.0/">
	<!ENTITY ns_custom "http://ns.adobe.com/GenericCustomNamespace/1.0/">
	<!ENTITY ns_adobe_xpath "http://ns.adobe.com/XPath/1.0/">
]>
<svg version="1.1" id="Calque_1" xmlns:x="&ns_extend;" xmlns:i="&ns_ai;" xmlns:graph="&ns_graphs;"
	 xmlns="http://www.w3.org/2000/svg" xmlns:xlink="http://www.w3.org/1999/xlink" x="0px" y="0px" width="22px" height="22px"
	 viewBox="5 5 22 22" enable-background="new 5 5 22 22" xml:space="preserve">
<metadata>
	<sfw  xmlns="&ns_sfw;">
		<slices></slices>
		<sliceSourceBounds  height="22" width="22" y="169.5" x="168.5" bottomLeftOrigin="true"></sliceSourceBounds>
	</sfw>
</metadata>
<g>
	<circle fill="#FFB300" cx="12.434" cy="19.298" r="2.358"/>
	<g>
		<path d="M24.733,6.783h-1.477V5h-0.968v1.783H9.711V5H8.743v1.783H7.266C6.017,6.783,5,7.8,5,9.048v15.686
			C5,25.983,6.017,27,7.266,27h17.468C25.982,27,27,25.983,27,24.734V9.048C26.999,7.798,25.982,6.783,24.733,6.783z M26.032,24.734
			c0,0.716-0.583,1.298-1.299,1.298H7.265c-0.716,0-1.298-0.582-1.298-1.298V12.563h20.065V24.734z M26.032,11.595H5.967V9.05
			c0-0.717,0.583-1.3,1.298-1.3h1.477v1.783H9.71V7.75h12.579v1.783h0.967V7.75h1.477c0.716,0,1.3,0.583,1.3,1.298V11.595
			L26.032,11.595z"/>
		<rect x="8.386" y="15.249" width="0.968" height="0.968"/>
		<rect x="11.951" y="15.249" width="0.968" height="0.968"/>
		<rect x="15.515" y="15.249" width="0.968" height="0.968"/>
		<rect x="19.08" y="15.249" width="0.968" height="0.968"/>
		<rect x="22.645" y="15.249" width="0.968" height="0.968"/>
		<rect x="8.386" y="18.813" width="0.968" height="0.968"/>
		<rect x="11.951" y="18.813" width="0.968" height="0.968"/>
		<rect x="15.515" y="18.813" width="0.968" height="0.968"/>
		<rect x="19.08" y="18.813" width="0.968" height="0.968"/>
		<rect x="8.386" y="22.378" width="0.968" height="0.969"/>
		<rect x="11.951" y="22.378" width="0.968" height="0.969"/>
		<rect x="15.515" y="22.378" width="0.968" height="0.969"/>
		<rect x="19.08" y="22.378" width="0.968" height="0.969"/>
		<rect x="22.645" y="18.813" width="0.968" height="0.968"/>
	</g>
</g>
</svg>
