<svg width="32" height="32" viewBox="0 0 32 32" fill="none" xmlns="http://www.w3.org/2000/svg">
<path d="M22.2665 7.35161H20.5652V11.4348H22.2665V7.35161Z" stroke="#333333" stroke-width="0.8" stroke-linecap="round" stroke-linejoin="round"/>
<path d="M25.3219 3.60869H23.6206V11.4348H25.3219V3.60869Z" stroke="#333333" stroke-width="0.8" stroke-linecap="round" stroke-linejoin="round"/>
<path d="M28.3842 5.31003H26.6829V11.4348H28.3842V5.31003Z" stroke="#333333" stroke-width="0.8" stroke-linecap="round" stroke-linejoin="round"/>
<path d="M24.4783 31C25.9191 31 27.087 29.8321 27.087 28.3913C27.087 26.9506 25.9191 25.7826 24.4783 25.7826C23.0376 25.7826 21.8696 26.9506 21.8696 28.3913C21.8696 29.8321 23.0376 31 24.4783 31Z" stroke="#333333" stroke-width="0.8" stroke-linecap="round" stroke-linejoin="round"/>
<path d="M11.4346 31C12.8754 31 14.0433 29.8321 14.0433 28.3913C14.0433 26.9506 12.8754 25.7826 11.4346 25.7826C9.99388 25.7826 8.82593 26.9506 8.82593 28.3913C8.82593 29.8321 9.99388 31 11.4346 31Z" stroke="#333333" stroke-width="0.8" stroke-linecap="round" stroke-linejoin="round"/>
<path d="M1 3.60869H4.91304L8.19999 20.0304C8.37775 20.9166 8.85687 21.714 9.55592 22.287C10.255 22.8601 11.1309 23.1735 12.0348 23.1739H27.087" stroke="#333333" stroke-width="0.8" stroke-linecap="round" stroke-linejoin="round"/>
<path d="M28.6784 15.6739C28.5986 16.3078 28.2888 16.8904 27.808 17.3112C27.3272 17.7319 26.7086 17.9615 26.0697 17.9565H8.17407" stroke="#333333" stroke-width="0.8" stroke-linecap="round" stroke-linejoin="round"/>
<path d="M6.21753 7.52174H15.348" stroke="#333333" stroke-width="0.8" stroke-linecap="round" stroke-linejoin="round"/>
<path d="M24.4783 14.0435C28.0801 14.0435 31 11.1236 31 7.52174C31 3.91988 28.0801 1 24.4783 1C20.8764 1 17.9565 3.91988 17.9565 7.52174C17.9565 11.1236 20.8764 14.0435 24.4783 14.0435Z" stroke="#333333" stroke-width="0.8" stroke-linecap="round" stroke-linejoin="round"/>
</svg>
