<svg width="20" height="20" viewBox="0 0 20 20" fill="none" xmlns="http://www.w3.org/2000/svg">
<rect x="0.4" y="2.41257" width="19.2" height="17.1874" rx="1.6" stroke="#333333" stroke-width="0.8" stroke-linecap="round" stroke-linejoin="round"/>
<line x1="0.903174" y1="6.39245" x2="18.9711" y2="6.39245" stroke="#333333" stroke-width="0.8" stroke-linecap="round" stroke-linejoin="round"/>
<line x1="3.41892" y1="0.4" x2="3.41892" y2="4.25409" stroke="#333333" stroke-width="0.8" stroke-linecap="round" stroke-linejoin="round"/>
<line x1="16.1233" y1="0.4" x2="16.1233" y2="4.25409" stroke="#333333" stroke-width="0.8" stroke-linecap="round" stroke-linejoin="round"/>
<path d="M7.42303 17.1633C6.8861 17.1633 6.40598 17.0668 5.98269 16.8736C5.55939 16.6775 5.22417 16.4062 4.97701 16.0596C4.72985 15.7131 4.59917 15.3139 4.58496 14.8622H5.39036C5.40456 15.1804 5.50257 15.4588 5.68439 15.6974C5.86621 15.9332 6.10769 16.1179 6.40882 16.2514C6.70996 16.3821 7.04519 16.4474 7.41451 16.4474C7.81792 16.4474 8.17303 16.3721 8.47985 16.2216C8.78951 16.071 9.03098 15.865 9.20428 15.6037C9.38042 15.3395 9.46848 15.0412 9.46848 14.7088C9.46848 14.3565 9.379 14.0454 9.20002 13.7756C9.02104 13.5057 8.76394 13.2954 8.42871 13.1449C8.09632 12.9943 7.6986 12.919 7.23553 12.919H6.72417V12.2031H7.23553C7.61337 12.2031 7.94718 12.1349 8.23695 11.9986C8.52956 11.8594 8.75968 11.6648 8.92729 11.4148C9.0949 11.1648 9.17871 10.8707 9.17871 10.5327C9.17871 10.2116 9.10627 9.92897 8.96138 9.68465C8.81649 9.44033 8.61195 9.24857 8.34775 9.10937C8.08638 8.97016 7.78098 8.90056 7.43155 8.90056C7.09348 8.90056 6.78382 8.9659 6.50257 9.09658C6.22132 9.22726 5.99405 9.41192 5.82076 9.65056C5.6503 9.88919 5.55939 10.1719 5.54803 10.4986H4.77672C4.78809 10.044 4.91309 9.64488 5.15172 9.30113C5.3932 8.95454 5.7128 8.68465 6.11053 8.49147C6.5111 8.29544 6.95428 8.19743 7.44007 8.19743C7.95428 8.19743 8.39888 8.30255 8.77388 8.51277C9.14888 8.723 9.43865 9.00283 9.6432 9.35226C9.85059 9.69885 9.95428 10.081 9.95428 10.4986C9.95428 10.9957 9.81934 11.4219 9.54945 11.777C9.27956 12.1293 8.91593 12.3736 8.45854 12.5099V12.5653C9.01536 12.6761 9.45286 12.9233 9.77104 13.3068C10.0921 13.6875 10.2526 14.1548 10.2526 14.7088C10.2526 15.1747 10.1304 15.5937 9.8861 15.9659C9.64178 16.3352 9.30655 16.6278 8.88042 16.8437C8.45712 17.0568 7.97132 17.1633 7.42303 17.1633Z" fill="#333333"/>
<path d="M14.8293 8.31675V17.044H14.0324V9.15198H13.9813L11.9358 10.5114V9.68465L13.9983 8.31675H14.8293Z" fill="#333333"/>
</svg>
