<svg width="23" height="32" viewBox="0 0 23 32" fill="none" xmlns="http://www.w3.org/2000/svg">
<path d="M3.60864 14.0435V8.82609C3.60864 6.75048 4.43317 4.75984 5.90084 3.29216C7.36852 1.82449 9.35912 1 11.4347 1V1C13.5103 1 15.5009 1.82449 16.9686 3.29216C18.4363 4.75984 19.2608 6.75048 19.2608 8.82609V14.0435H16.6521V8.82609C16.6521 7.44235 16.1024 6.11536 15.124 5.13691C14.1455 4.15846 12.8185 3.6087 11.4347 3.6087C10.051 3.6087 8.72392 4.15846 7.74547 5.13691C6.76702 6.11536 6.21734 7.44235 6.21734 8.82609V14.0435H3.60864Z" stroke="#333333" stroke-width="0.8" stroke-linecap="round" stroke-linejoin="round"/>
<path d="M19.2609 14.0435H3.6087C2.16795 14.0435 1 15.2114 1 16.6522V28.3913C1 29.832 2.16795 31 3.6087 31H19.2609C20.7016 31 21.8696 29.832 21.8696 28.3913V16.6522C21.8696 15.2114 20.7016 14.0435 19.2609 14.0435Z" stroke="#333333" stroke-width="0.8" stroke-linecap="round" stroke-linejoin="round"/>
<path d="M14.0434 20.5652C14.0458 20.0802 13.913 19.6041 13.6598 19.1904C13.4066 18.7767 13.0431 18.4419 12.6101 18.2233C12.1771 18.0048 11.6918 17.9112 11.2086 17.9533C10.7254 17.9953 10.2635 18.1712 9.87478 18.4612C9.48603 18.7512 9.18585 19.144 9.00793 19.5952C8.83001 20.0464 8.78138 20.5381 8.86754 21.0154C8.9537 21.4927 9.17122 21.9367 9.49567 22.2972C9.82012 22.6577 10.2387 22.9205 10.7043 23.0564L10.1304 27.0869H12.7391L12.1651 23.0564C12.7049 22.8989 13.1793 22.5716 13.5178 22.1227C13.8562 21.6737 14.0406 21.1274 14.0434 20.5652V20.5652Z" stroke="#333333" stroke-width="0.8" stroke-linecap="round" stroke-linejoin="round"/>
</svg>
