<svg width="29" height="32" viewBox="0 0 29 32" fill="none" xmlns="http://www.w3.org/2000/svg">
<path d="M8.50007 20.2857L6.35721 22.4286L4.21436 20.2857V31H8.50007V20.2857Z" stroke="#333333" stroke-width="0.8" stroke-linecap="round" stroke-linejoin="round"/>
<path d="M14.9285 18.1429L12.7857 16L10.6428 18.1429V31H14.9285V18.1429Z" stroke="#333333" stroke-width="0.8" stroke-linecap="round" stroke-linejoin="round"/>
<path d="M21.3572 16L19.2144 13.8571L17.0715 16V31H21.3572V16Z" stroke="#333333" stroke-width="0.8" stroke-linecap="round" stroke-linejoin="round"/>
<path d="M27.7857 12.7857L26.7143 11.7143H25.6429L23.5 13.8571V31H27.7857V12.7857Z" stroke="#333333" stroke-width="0.8" stroke-linecap="round" stroke-linejoin="round"/>
<path d="M26.1786 7.96428L21.3572 12.7857L19.2144 10.6429L14.9286 14.9286L12.7858 12.7857L6.35721 19.2143L4.21436 17.0714" stroke="#333333" stroke-width="0.8" stroke-linecap="round" stroke-linejoin="round"/>
<path d="M27.7858 6.35715V9.57143L24.5715 6.35715H27.7858Z" stroke="#333333" stroke-width="0.8" stroke-linecap="round" stroke-linejoin="round"/>
<path d="M9.72925 1.95071C10.0243 2.14835 10.268 2.4134 10.4402 2.72397C10.6123 3.03454 10.7081 3.38166 10.7194 3.73659" stroke="#333333" stroke-width="0.8" stroke-linecap="round" stroke-linejoin="round"/>
<path d="M3.01085 11.026C2.53487 10.5341 2.25232 9.88707 2.21509 9.20363V4.344C2.21509 2.75248 4.11642 1.00301 6.46726 1.00301C7.62764 0.964501 8.77015 1.29644 9.72929 1.95067" stroke="#333333" stroke-width="0.8" stroke-linecap="round" stroke-linejoin="round"/>
<path d="M10.7193 9.81111C10.7193 11.4026 8.818 12.5447 6.46715 12.5447C5.8182 12.546 5.17601 12.4129 4.5811 12.1536C3.9862 11.8943 3.45149 11.5145 3.01074 11.0382" stroke="#333333" stroke-width="0.8" stroke-linecap="round" stroke-linejoin="round"/>
<path d="M6.83765 5.86267H8.28946" stroke="#333333" stroke-width="0.8" stroke-linecap="round" stroke-linejoin="round"/>
<path d="M1 5.86267H6.83763" stroke="#333333" stroke-width="0.8" stroke-linecap="round" stroke-linejoin="round"/>
<path d="M5.48901 7.68503H9.50428" stroke="#333333" stroke-width="0.8" stroke-linecap="round" stroke-linejoin="round"/>
<path d="M1 7.68503H5.48908" stroke="#333333" stroke-width="0.8" stroke-linecap="round" stroke-linejoin="round"/>
</svg>
