<svg width="30" height="30" viewBox="0 0 30 30" fill="none" xmlns="http://www.w3.org/2000/svg">
<circle cx="15" cy="15" r="14.6" stroke="#333333" stroke-width="0.8" stroke-linecap="round" stroke-linejoin="round"/>
<path d="M25.069 25.3782L24.5555 23.3242C24.4479 22.9012 24.2343 22.5127 23.9348 22.1952C23.6353 21.8777 23.2598 21.6418 22.8438 21.5098L19.0439 20.2432C17.7602 19.7126 17.3322 17.6757 17.3322 17.2478C18.0248 16.7311 18.4405 15.7773 18.616 15.1082C18.7915 14.4391 19.0095 13.3469 19.0439 12.1128C19.0439 12.1128 19.0439 11.5581 19.0439 10.8975M5.35059 25.3953L5.86406 23.3413C5.97164 22.9183 6.18529 22.5297 6.48478 22.2123C6.78428 21.8948 7.15973 21.659 7.57573 21.5269L11.3414 20.2432C12.6252 19.7126 13.0531 17.65 13.0531 17.2478C12.3605 16.7311 12.001 15.964 11.7693 15.1082C11.5377 14.2524 11.3835 12.638 11.3414 12.1128C11.3122 11.7487 11.3043 11.3092 11.306 10.8975M11.3282 9.8568C11.3334 9.73514 11.3414 9.54529 11.3414 9.54529C11.3854 8.538 11.8053 7.5838 12.5182 6.87086C13.0877 6.30134 13.797 5.91883 14.5785 5.76555M19.0439 9.8568C19.0439 8.85146 19.0439 10.5506 19.0439 9.54529C19.0439 9.54529 19.0439 8.09297 17.999 6.87086C17.3897 6.15826 16.5714 5.87657 15.9662 5.76555" stroke="#333333" stroke-width="0.8" stroke-linecap="round" stroke-linejoin="round"/>
<path d="M11.2481 9.8568H10.2074V10.8975H14.5785M19.0884 9.8568C19.0884 9.8568 19.8615 9.8568 20.2679 9.8568V10.8975H15.9662M14.5785 10.8975V5H15.9662V10.8975M14.5785 10.8975H15.9662" stroke="#333333" stroke-width="0.8" stroke-linecap="round" stroke-linejoin="round"/>
</svg>
